<svg version="1.0" xmlns="http://www.w3.org/2000/svg"
 width="1254.000000pt" height="1254.000000pt" viewBox="0 0 1254.000000 1254.000000"
 preserveAspectRatio="xMidYMid meet">
<g transform="translate(0.000000,1254.000000) scale(0.100000,-0.100000)"
fill="#000000" stroke="none">
<path d="M6122 11730 c-185 -49 -339 -171 -477 -378 -67 -102 -69 -104 -149
-144 -110 -55 -217 -130 -275 -193 -44 -49 -167 -227 -290 -420 -87 -137 -100
-155 -118 -155 -10 0 -102 23 -206 52 l-187 51 -55 67 c-84 102 -147 140 -233
140 -96 0 -556 -111 -650 -156 -53 -26 -144 -118 -189 -192 -40 -65 -23 -167
38 -232 151 -161 482 -216 774 -129 67 20 75 26 177 130 81 83 113 109 133
109 21 0 243 -66 253 -75 2 -2 -32 -64 -76 -137 -44 -73 -106 -185 -138 -248
-54 -107 -58 -120 -57 -180 1 -36 3 -74 5 -84 6 -38 -308 -176 -528 -231 -81
-20 -101 -19 -131 5 -53 42 -133 17 -169 -52 -50 -97 84 -205 170 -137 17 13
51 24 94 29 164 21 367 80 526 154 55 26 101 45 103 42 2 -2 6 -19 9 -37 l5
-34 -137 -75 c-75 -41 -153 -84 -173 -95 -178 -100 -403 -215 -436 -224 -54
-14 -84 -37 -101 -77 -21 -51 -17 -75 27 -164 45 -90 80 -120 139 -120 37 0
97 31 118 61 6 9 54 40 105 67 98 52 301 162 430 232 43 23 80 40 82 38 2 -2
-3 -32 -10 -68 -23 -109 -114 -754 -131 -930 -12 -122 -15 -213 -10 -350 8
-251 62 -1025 81 -1160 3 -19 9 -93 15 -165 15 -192 17 -197 131 -322 96 -106
98 -109 119 -191 11 -45 29 -105 39 -132 l19 -49 -38 -6 c-66 -11 -77 -36 -72
-163 2 -41 7 -58 27 -77 23 -24 31 -25 135 -25 106 0 110 -1 110 -21 0 -12
-15 -38 -33 -58 -18 -20 -39 -46 -48 -58 -14 -21 -22 -22 -217 -25 l-202 -3
-27 -27 c-52 -52 -41 -207 16 -235 9 -4 99 -10 201 -13 l185 -5 5 -170 c4
-127 9 -178 21 -200 14 -28 14 -36 -1 -89 -13 -48 -21 -60 -49 -74 -37 -17
-61 -62 -61 -112 0 -43 14 -66 58 -94 30 -19 43 -38 71 -107 19 -46 56 -128
82 -181 40 -79 49 -107 49 -150 0 -58 18 -137 97 -435 61 -233 66 -247 99
-290 23 -31 24 -37 25 -205 0 -95 4 -210 7 -255 9 -104 32 -133 110 -141 l50
-4 4 -98 c4 -117 20 -144 93 -154 l42 -7 7 -242 c8 -271 16 -339 52 -447 69
-204 272 -388 494 -447 98 -26 264 -23 360 6 241 74 410 234 487 461 30 91 32
109 42 324 6 125 11 254 11 287 0 57 1 59 25 59 35 0 82 25 97 53 7 12 15 65
18 117 l5 95 52 5 c37 4 60 13 75 28 22 22 23 29 26 273 l3 251 34 51 c19 28
40 75 46 104 11 48 29 73 29 39 0 -20 61 -93 102 -121 53 -36 150 -65 216 -65
145 0 296 91 361 218 42 83 43 124 1 427 -81 583 -100 695 -125 745 -46 91
-129 165 -220 194 l-50 17 5 167 5 167 187 5 188 5 27 28 c24 24 28 36 31 101
4 70 3 75 -26 107 l-30 34 -206 3 c-195 3 -206 4 -217 23 -6 12 -26 38 -46 59
-57 64 -47 74 84 80 146 6 156 15 161 128 3 67 1 81 -18 105 -16 19 -30 27
-54 27 -38 0 -50 8 -36 25 6 7 24 65 41 130 l31 119 90 100 c50 56 98 119 108
141 11 25 22 89 29 170 6 72 22 252 35 400 65 703 78 1163 43 1440 -33 256
-68 498 -98 679 -16 99 -28 181 -26 182 2 3 189 -95 367 -193 36 -20 107 -58
158 -85 51 -27 97 -58 102 -69 6 -10 29 -28 52 -40 53 -27 118 -22 154 12 29
27 104 172 104 200 0 59 -65 129 -119 129 -21 0 -221 103 -491 253 -74 41
-163 88 -197 105 -56 29 -62 35 -61 62 1 16 2 30 3 30 1 0 42 -20 91 -43 49
-24 118 -54 154 -65 95 -32 284 -70 380 -78 55 -5 96 -14 118 -27 39 -23 102
-19 134 10 29 26 50 80 43 113 -3 15 -20 40 -36 56 -40 38 -108 41 -155 6
l-30 -23 -93 20 c-132 29 -337 102 -444 159 -86 45 -92 50 -90 77 11 128 9
137 -54 266 -34 68 -95 180 -136 249 -41 69 -72 128 -68 132 9 11 230 78 256
78 16 0 55 -32 127 -104 56 -57 117 -110 133 -119 85 -43 339 -69 470 -48 250
41 415 160 417 299 0 30 -8 64 -20 88 -25 48 -132 166 -175 192 -58 36 -511
148 -639 159 -102 9 -140 -10 -241 -118 l-84 -89 -185 -50 c-102 -27 -194 -50
-205 -50 -27 0 -37 13 -132 167 -123 199 -236 362 -294 422 -59 61 -167 135
-274 188 -66 32 -77 43 -110 97 -79 132 -185 246 -300 324 -80 54 -134 77
-227 97 -98 20 -174 18 -264 -5z m258 -129 c21 -9 14 -10 -35 -6 -59 4 -59 4
-23 -8 29 -9 34 -15 24 -22 -11 -8 -12 -24 -6 -70 5 -33 9 -76 9 -96 l1 -37
-90 -1 c-86 0 -90 1 -90 21 0 38 22 153 31 163 17 18 9 25 -28 25 -30 0 -35 3
-23 11 11 8 7 9 -17 4 -49 -10 -40 2 15 20 52 17 189 15 232 -4z m17 -37 c-3
-3 -12 -4 -19 -1 -8 3 -5 6 6 6 11 1 17 -2 13 -5z m-337 -17 c0 -2 -10 -12
-21 -23 -22 -19 -22 -19 -10 4 10 18 31 31 31 19z m304 -254 c5 -51 35 -429
52 -664 l6 -86 76 -18 c112 -26 202 -60 332 -126 149 -75 182 -98 186 -132 l3
-26 -38 23 c-119 75 -311 157 -450 192 -313 79 -626 17 -991 -194 -29 -17 -40
-20 -32 -10 8 10 11 22 7 27 -14 24 225 155 395 216 52 19 85 34 73 35 -15 0
-20 5 -17 18 8 37 15 100 19 157 6 96 16 198 20 205 7 12 24 168 26 240 1 41
6 89 9 107 6 25 4 33 -9 35 -9 2 18 16 59 30 60 21 95 27 171 27 l96 1 7 -57z
m766 -251 c93 -66 162 -153 319 -400 86 -134 89 -142 65 -142 -13 0 -8 -7 18
-25 39 -26 131 -170 144 -222 4 -16 17 -50 30 -77 13 -27 22 -51 20 -53 -1 -2
-19 20 -39 49 -20 29 -60 87 -89 129 -29 41 -99 143 -156 226 -62 92 -140 191
-199 253 -52 55 -97 99 -99 97 -2 -1 10 -60 26 -130 41 -174 85 -399 105 -534
l18 -111 53 -47 c31 -26 54 -55 54 -66 0 -10 -2 -19 -5 -19 -8 0 -149 106
-162 121 -6 8 -14 43 -17 79 -4 36 -11 88 -17 115 -5 28 -18 104 -30 170 -25
145 -97 435 -139 563 -16 51 -30 95 -30 98 0 6 85 -42 130 -74z m-1605 51
c-40 -102 -125 -424 -169 -648 -29 -143 -57 -321 -53 -337 2 -13 -143 -138
-160 -138 -30 0 -10 42 40 85 l53 46 13 92 c15 111 81 445 114 577 13 52 22
97 20 99 -6 7 -109 -97 -177 -179 -66 -80 -146 -192 -289 -407 -48 -73 -92
-133 -98 -133 -5 0 -2 15 8 33 10 17 18 39 18 47 1 19 60 136 90 176 13 17 38
37 54 44 31 12 42 45 19 52 -14 5 -3 25 135 232 121 183 156 226 226 280 60
46 141 96 155 96 4 0 5 -8 1 -17z m-1382 -560 c3 -18 1 -23 -10 -19 -8 3 -33
7 -56 7 -23 1 -34 3 -24 6 27 7 20 23 -10 24 -25 1 -24 2 7 8 58 10 87 2 93
-26z m4357 28 c39 -7 41 -9 13 -10 -48 -2 -40 -16 15 -27 42 -8 37 -9 -50 -9
-61 0 -93 4 -87 10 17 17 9 25 -16 15 -37 -14 -31 -2 8 14 37 17 55 18 117 7z
m-3902 -153 c82 -23 105 -35 96 -49 -5 -9 15 -13 49 -11 9 1 17 -3 17 -8 0
-15 -22 -12 -130 15 -128 32 -150 41 -150 60 0 21 27 19 118 -7z m3420 0 c-3
-20 -17 -27 -103 -51 -55 -15 -107 -26 -115 -24 -26 6 161 93 208 96 8 1 12
-8 10 -21z m1133 -35 c13 -16 12 -17 -3 -4 -17 13 -22 21 -14 21 2 0 10 -8 17
-17z m-4921 -115 c-38 -55 -93 -109 -132 -129 -20 -10 -81 -26 -135 -35 -164
-27 -330 -6 -454 56 -54 28 -92 58 -53 43 12 -4 15 -3 10 5 -10 17 -6 16 65
-17 35 -16 84 -31 109 -35 25 -3 37 -2 27 2 -15 6 0 16 64 45 71 32 79 34 63
15 l-19 -22 27 17 c37 23 54 22 123 -13 33 -17 52 -28 43 -26 -11 3 -22 -2
-28 -14 -13 -24 -14 -24 73 -5 72 15 130 51 196 119 42 43 52 40 21 -6z m4140
-33 c45 -47 92 -71 155 -78 30 -4 42 -3 30 2 -17 7 -14 11 30 33 82 42 93 43
116 14 11 -14 26 -26 34 -26 20 0 24 23 6 37 -19 15 82 -18 127 -41 46 -24 73
-20 148 19 72 38 111 41 80 6 -57 -63 -277 -118 -428 -107 -102 8 -229 38
-261 63 -22 16 -81 88 -100 120 -15 25 24 -1 63 -42z m-699 -231 c95 -71 289
-231 289 -239 0 -2 -12 -2 -26 -1 -14 2 -90 50 -167 108 -78 58 -177 129 -219
159 -59 40 -78 59 -78 76 l0 23 48 -24 c27 -14 96 -60 153 -102z m-2621 96 c0
-13 -22 -36 -67 -68 -37 -26 -132 -95 -211 -154 -79 -60 -150 -108 -156 -108
-7 0 -17 -5 -24 -12 -9 -9 -12 -9 -12 -1 0 13 96 101 205 188 75 61 243 175
257 175 4 0 8 -9 8 -20z m544 -258 c2 -4 -11 -6 -30 -4 -19 2 -34 6 -34 8 0 8
59 4 64 -4z m1384 -1 c17 -10 -44 -24 -62 -14 -6 3 -8 3 -4 -2 5 -5 -7 -18
-26 -31 -38 -26 -66 -78 -66 -122 0 -36 35 -90 79 -119 38 -26 26 -31 -18 -9
-55 29 -89 111 -71 175 22 83 119 153 168 122z m-1494 -16 c-10 -8 -23 -14
-29 -14 -5 0 -1 6 9 14 11 8 24 15 30 15 5 0 1 -7 -10 -15z m212 -76 c36 -71
12 -164 -54 -202 -44 -26 -52 -15 -9 12 61 38 85 127 52 191 -9 17 -13 30 -11
30 3 0 13 -14 22 -31z m669 -28 c60 -27 101 -66 129 -123 85 -170 -41 -368
-233 -368 -77 0 -136 27 -190 85 -38 42 -71 120 -71 170 0 86 74 199 155 236
53 25 157 25 210 0z m-1203 -185 c7 4 5 -2 -5 -12 -15 -16 -19 -17 -27 -4 -15
23 -12 34 5 20 8 -6 20 -8 27 -4z m-92 -15 c17 -32 11 -45 -26 -63 -46 -24
-49 -23 -64 12 -14 34 -16 32 25 53 40 21 52 21 65 -2z m2450 -1 c22 -11 40
-23 40 -26 0 -2 -8 -17 -17 -32 -9 -15 -18 -28 -18 -30 -1 -1 -22 8 -46 20
-24 13 -45 24 -47 25 -7 3 29 63 39 63 5 0 28 -9 49 -20z m238 -129 c67 -35
103 -60 84 -61 -7 0 -11 -4 -8 -8 2 -4 1 -14 -5 -22 -7 -13 -18 -10 -66 16
-82 44 -109 49 -123 23 -7 -11 -14 -19 -17 -16 -5 5 28 74 56 117 l16 24 3
-22 c2 -16 20 -31 60 -51z m-2893 8 c17 -32 11 -54 -12 -45 -8 3 -44 -12 -80
-34 -36 -21 -70 -41 -77 -43 -8 -3 -8 -12 1 -35 21 -58 -6 -44 -38 20 -23 46
-28 63 -18 67 26 8 164 84 178 97 18 16 27 11 46 -27z m3035 -74 c0 -15 -62
-125 -70 -125 -21 0 -19 22 7 74 18 37 33 56 45 56 10 0 18 -2 18 -5z m-1139
-398 c82 -80 228 -332 293 -507 131 -355 139 -573 30 -895 -43 -130 -148 -345
-161 -332 -3 3 14 59 37 124 54 152 116 402 131 523 32 261 -50 567 -232 874
-35 58 -85 133 -111 166 -44 53 -53 80 -29 80 4 0 23 -15 42 -33z m-973 -29
c-104 -126 -237 -368 -286 -520 -55 -166 -63 -208 -69 -363 -4 -124 -2 -170
15 -270 22 -128 71 -304 127 -462 19 -53 33 -98 31 -100 -14 -14 -132 227
-174 357 -53 161 -66 239 -66 390 0 125 4 161 29 260 53 220 126 393 235 560
90 137 137 190 167 190 l25 0 -34 -42z m621 -123 c190 -45 342 -186 404 -375
54 -164 95 -587 77 -799 -23 -265 -115 -597 -342 -1234 -45 -124 -168 -196
-316 -184 -97 8 -138 23 -190 70 -56 52 -70 84 -171 390 -180 546 -225 723
-242 936 -24 302 31 736 118 919 41 87 130 174 229 223 46 23 108 48 136 55
73 17 220 17 297 -1z m-1605 -137 c2 -18 10 -71 16 -118 6 -47 20 -136 32
-198 l21 -112 -32 -79 c-53 -136 -55 -156 -42 -466 11 -261 34 -587 46 -645 3
-14 1 -32 -5 -40 -8 -12 -10 -12 -10 5 0 11 -14 56 -31 100 -93 241 -211 610
-268 840 l-30 121 15 104 c8 58 19 148 24 200 l11 95 117 112 c64 62 120 113
124 113 4 0 9 -15 12 -32z m3106 -138 l49 -45 20 -160 c12 -88 24 -180 27
-205 6 -55 -30 -211 -113 -475 -54 -173 -148 -450 -192 -565 -14 -37 -16 -49
-6 -36 15 20 15 20 15 -1 0 -35 -48 -406 -60 -458 -16 -75 -21 -86 -31 -80 -5
4 -9 -9 -9 -27 0 -18 -5 -40 -11 -48 -8 -11 -9 -8 -5 15 3 17 12 95 21 175 9
80 18 152 20 160 10 36 66 638 81 875 21 333 17 374 -43 522 l-25 62 26 138
c14 76 29 174 32 218 3 44 8 86 10 93 4 13 41 -17 194 -158z m-2627 -77 c-32
-67 -65 -181 -78 -276 -7 -56 9 -146 37 -202 20 -39 20 -40 1 -22 -26 23 -60
22 -128 -4 -57 -21 -125 -78 -125 -104 0 -8 -4 -15 -9 -15 -5 0 -15 25 -21 56
-34 165 53 348 264 552 47 45 87 82 89 82 2 0 -12 -30 -30 -67z m2159 -183
c109 -134 149 -263 118 -375 l-12 -45 -20 25 c-24 30 -131 82 -192 94 -44 8
-47 7 -67 -21 -12 -16 -23 -28 -25 -26 -2 2 10 38 26 79 49 124 37 277 -34
447 -14 34 -26 65 -26 69 0 12 163 -161 232 -247z m-2412 -637 c11 -15 18 -33
16 -40 -3 -7 0 -12 6 -10 6 1 13 -4 16 -12 3 -9 0 -11 -8 -6 -9 5 -11 4 -6 -4
4 -6 11 -9 15 -6 5 2 42 -44 84 -103 41 -59 100 -138 131 -177 107 -133 180
-230 164 -217 -28 22 -28 -3 -1 -41 29 -41 52 -40 26 1 -17 25 -17 26 -1 13
44 -34 158 -234 211 -371 33 -84 91 -321 112 -455 4 -22 9 -50 12 -62 4 -18 1
-23 -16 -23 -12 0 -21 2 -21 5 0 24 -68 321 -95 415 -64 219 -133 340 -356
620 -174 219 -349 473 -349 507 0 19 32 1 60 -34z m2520 40 c0 -12 -81 -146
-148 -243 -36 -52 -129 -178 -207 -280 -170 -221 -229 -308 -282 -415 -64
-127 -132 -353 -170 -565 -7 -36 -13 -46 -32 -48 -18 -3 -22 0 -17 15 3 10 14
61 25 113 72 350 157 555 315 763 34 45 105 138 157 207 53 69 131 175 174
235 123 173 148 204 157 199 5 -3 8 -2 7 3 -3 15 1 23 11 23 6 0 10 -3 10 -7z
m-2986 -409 c125 -353 251 -669 318 -798 34 -66 43 -98 57 -198 10 -65 15
-118 11 -118 -8 0 -240 482 -308 640 -24 58 -48 110 -53 115 -4 6 -22 46 -38
90 -22 57 -33 108 -40 185 -18 190 -23 275 -17 269 3 -3 35 -86 70 -185z
m3446 5 c-11 -158 -15 -182 -45 -264 -59 -157 -366 -807 -396 -840 -12 -12
-11 11 1 114 8 64 21 106 56 180 75 158 236 563 330 829 31 89 59 160 61 158
2 -2 -1 -82 -7 -177z m-3152 -404 c0 -22 -3 -18 -9 15 -4 25 -7 59 -7 75 0 22
3 18 9 -15 4 -25 7 -58 7 -75z m-31 3 c-3 -7 -5 -2 -5 12 0 14 2 19 5 13 2 -7
2 -19 0 -25z m52 -167 c1 -57 -6 -30 -12 44 -4 54 -4 61 3 30 5 -22 9 -55 9
-74z m-21 -21 l0 -45 -9 40 c-4 22 -8 56 -7 75 l0 35 8 -30 c4 -16 8 -50 8
-75z m-269 -305 c1 -16 -1 -17 -9 -5 -5 8 -9 31 -9 50 l1 35 8 -30 c4 -16 8
-39 9 -50z m18 43 c-3 -7 -5 -2 -5 12 0 14 2 19 5 13 2 -7 2 -19 0 -25z m10
-105 c-3 -10 -5 -2 -5 17 0 19 2 27 5 18 2 -10 2 -26 0 -35z m3280 0 c-3 -10
-5 -2 -5 17 0 19 2 27 5 18 2 -10 2 -26 0 -35z m-53 -193 c-28 -42 -26 -71 2
-31 27 38 66 78 55 56 -5 -11 -38 -49 -72 -85 -34 -36 -53 -55 -44 -42 24 29
11 41 -17 16 -12 -10 4 14 36 54 65 80 80 93 40 32z m-3213 3 c13 -16 12 -17
-3 -4 -10 7 -18 15 -18 17 0 8 8 3 21 -13z m110 -85 c31 -43 17 -34 -21 15
-19 23 -26 36 -17 28 10 -8 27 -27 38 -43z m-31 -3 c19 -19 32 -35 29 -35 -3
0 -20 16 -39 35 -19 19 -32 35 -29 35 3 0 20 -16 39 -35z m85 -77 c0 -4 11
-19 25 -34 21 -22 21 -25 5 -16 -11 5 -30 21 -43 34 -19 21 -20 25 -5 23 10 0
18 -4 18 -7z m352 -220 c-2 -18 -4 -6 -4 27 0 33 2 48 4 33 2 -15 2 -42 0 -60z
m-8 -315 c-5 -105 -13 -202 -18 -215 -14 -34 -14 80 1 307 16 251 30 178 17
-92z m2241 116 c0 -10 -4 -19 -10 -19 -5 0 -10 12 -10 26 0 14 4 23 10 19 6
-3 10 -15 10 -26z m9 -149 c-1 -74 -1 -74 -14 -40 -7 19 -14 62 -14 94 -1 55
0 58 14 40 10 -13 14 -43 14 -94z m11 -147 c-1 -57 -8 -58 -25 -4 -5 16 -4 21
4 17 7 -5 11 2 11 18 0 14 2 26 5 26 3 0 5 -26 5 -57z m-2455 -173 c-8 -16
-15 -36 -15 -45 0 -24 -24 -12 -28 13 -5 30 15 62 39 62 18 0 19 -2 4 -30z
m2655 16 c0 -2 3 -11 6 -20 3 -9 1 -16 -5 -16 -6 0 -11 7 -11 16 0 8 -4 12
-10 9 -5 -3 -10 -1 -10 4 0 6 7 11 15 11 8 0 15 -2 15 -4z m-210 -191 c84
-169 210 -556 210 -643 0 -51 -39 -151 -133 -342 -84 -170 -110 -202 -457
-553 -214 -218 -337 -334 -344 -326 -4 5 35 150 69 259 28 89 75 249 105 362
10 36 28 96 39 132 11 36 31 118 45 183 14 65 35 142 46 171 22 57 26 92 10
92 -5 0 -10 16 -10 35 0 38 2 40 31 25 28 -16 25 -67 -17 -254 -58 -262 -124
-539 -134 -563 -5 -13 -6 -23 -1 -23 25 0 386 404 485 543 67 95 146 252 146
291 0 72 -100 524 -145 655 -45 133 -24 116 55 -44z m-2211 59 c-11 -32 -42
-149 -69 -259 -103 -418 -103 -419 -20 -569 64 -114 105 -172 234 -326 95
-114 315 -350 326 -350 4 0 -3 44 -16 98 -76 315 -144 639 -143 681 1 61 91
-215 139 -429 18 -80 43 -183 56 -230 13 -47 28 -107 34 -135 6 -27 14 -59 19
-70 30 -65 106 -333 98 -342 -8 -7 -449 431 -566 562 -152 170 -159 179 -229
320 -126 252 -149 321 -132 398 27 129 149 476 205 587 36 71 75 133 81 128 2
-3 -5 -31 -17 -64z m1005 -599 c-45 -7 -95 -15 -110 -19 -28 -6 -27 -5 6 14
26 14 53 19 110 19 l75 -1 -81 -13z m1679 -841 c52 -25 27 -36 -50 -22 -49 9
-71 8 -129 -6 -38 -9 -80 -20 -94 -23 l-25 -5 20 20 c11 12 43 30 70 41 60 25
150 23 208 -5z m-518 -91 c-8 -27 -30 -109 -50 -183 -20 -74 -42 -149 -50
-166 -20 -47 -285 -270 -482 -408 -46 -32 -83 -55 -83 -52 0 3 20 19 45 36 25
17 43 35 40 40 -7 12 45 51 58 43 6 -4 7 -1 2 7 -6 10 -4 12 11 6 10 -4 15 -4
11 0 -4 4 -1 14 6 22 6 9 -17 -4 -52 -27 -35 -24 -61 -38 -56 -32 4 7 44 37
90 67 74 49 314 251 356 300 19 22 39 80 74 219 38 148 45 167 61 161 7 -3 16
-1 19 4 13 20 12 8 0 -37z m-2116 -73 c13 -47 34 -122 47 -166 27 -92 29 -110
10 -75 -18 32 -29 11 -15 -28 13 -36 135 -145 151 -135 7 4 -1 17 -21 33 -17
14 -31 29 -31 33 0 5 44 -29 98 -73 109 -91 132 -112 85 -80 -22 15 -34 18
-39 10 -3 -6 -2 -14 3 -18 5 -3 26 -19 46 -34 38 -30 69 -29 45 1 -14 17 58
-32 107 -74 22 -19 24 -23 8 -15 -19 9 -23 9 -23 -2 0 -18 107 -93 117 -83 4
4 -6 18 -22 32 -17 14 -6 9 24 -12 l54 -38 -7 29 c-4 17 -18 80 -32 142 -13
61 -26 124 -30 139 l-7 28 30 -22 c23 -16 32 -32 37 -64 4 -24 23 -108 42
-187 19 -79 33 -146 30 -148 -5 -6 -35 13 -161 101 -210 147 -484 376 -509
425 -8 14 -29 77 -46 140 -26 89 -30 115 -20 121 9 5 11 19 7 41 -4 19 -9 48
-13 64 -10 57 12 2 35 -85z m2558 -266 c-3 -3 -12 -4 -19 -1 -8 3 -5 6 6 6 11
1 17 -2 13 -5z m-2451 -36 l29 -33 -32 29 c-31 28 -38 36 -30 36 2 0 16 -15
33 -32z m2382 25 c-10 -2 -26 -2 -35 0 -10 3 -2 5 17 5 19 0 27 -2 18 -5z m98
-5 c-11 -6 -51 -12 -90 -14 l-71 -3 73 9 c40 4 76 11 79 14 4 3 11 6 17 6 6 0
2 -6 -8 -12z m-1143 -260 c-48 -182 -54 -201 -48 -143 4 30 3 34 -3 15 -16
-48 -23 -82 -15 -77 4 3 14 -1 21 -9 10 -11 5 -18 -25 -38 -20 -14 -38 -24
-39 -23 -1 1 11 54 27 117 16 63 36 149 44 190 12 60 22 81 45 103 17 15 32
27 33 27 2 0 -16 -73 -40 -162z m-374 130 c36 -19 40 -42 7 -36 -37 7 -128
-11 -148 -29 -9 -8 -19 -32 -21 -52 -2 -20 -4 0 -5 44 l-2 81 73 2 c43 1 82
-3 96 -10z m57 -91 c2 -2 1 -46 -3 -98 l-8 -93 -47 -18 c-53 -20 -101 -11
-118 22 -12 22 -14 183 -2 194 7 8 169 2 178 -7z m374 -151 c0 -2 -8 -10 -17
-17 -16 -13 -17 -12 -4 4 13 16 21 21 21 13z m-581 -49 c1 -5 -3 -5 -9 -2 -5
3 -10 16 -9 28 0 21 1 21 9 2 5 -11 9 -24 9 -28z m541 20 c0 -2 -12 -14 -27
-28 l-28 -24 24 28 c23 25 31 32 31 24z m-714 -246 c128 -64 251 -80 393 -51
132 27 151 35 278 121 65 44 100 63 94 51 -17 -33 -166 -186 -209 -215 -45
-31 -212 -77 -281 -77 -60 0 -200 34 -253 61 -43 22 -196 168 -237 227 -22 31
-17 29 67 -27 49 -33 116 -74 148 -90z"/>
<path d="M3713 10133 c9 -2 25 -2 35 0 9 3 1 5 -18 5 -19 0 -27 -2 -17 -5z"/>
<path d="M8733 10123 c9 -2 23 -2 30 0 6 3 -1 5 -18 5 -16 0 -22 -2 -12 -5z"/>
<path d="M6165 9637 c-54 -31 -90 -96 -89 -162 2 -142 142 -226 272 -164 107
52 134 196 54 291 -52 62 -161 78 -237 35z"/>
<path d="M6110 8721 c-104 -35 -147 -61 -213 -125 -184 -179 -198 -440 -33
-623 159 -177 423 -220 653 -107 179 89 287 298 249 482 -22 106 -52 159 -136
243 -66 66 -88 81 -161 109 -74 30 -97 34 -194 37 -87 2 -121 -1 -165 -16z
m241 -51 c136 -26 261 -119 320 -238 31 -61 34 -75 34 -158 0 -84 -2 -95 -38
-166 -44 -89 -95 -139 -191 -186 -112 -55 -212 -66 -335 -37 -318 75 -433 416
-220 649 102 112 272 166 430 136z"/>
<path d="M6153 8542 c-69 -25 -117 -59 -151 -107 -38 -53 -52 -97 -52 -165 0
-160 159 -284 342 -267 110 10 175 48 235 134 31 46 37 62 41 126 5 85 -13
137 -67 200 -73 82 -235 119 -348 79z"/>
<path d="M5902 7853 c-4 -10 -7 -112 -7 -228 0 -246 3 -262 99 -455 125 -252
196 -350 255 -350 56 0 87 25 146 120 82 133 180 325 205 403 12 38 25 101 29
140 7 81 -2 330 -13 365 l-8 24 -22 -21 c-32 -30 -142 -77 -213 -91 -140 -28
-316 5 -416 76 -42 31 -48 32 -55 17z"/>
<path d="M6250 7545 c0 -8 4 -15 9 -15 5 0 11 7 15 15 3 9 0 15 -9 15 -8 0
-15 -7 -15 -15z"/>
</g>
</svg>
